<?xml version="1.0" encoding="UTF-8" standalone="no"?>
<svg version="1.1" id="svg1" width="1080" height="1080" viewBox="0 0 1080 1080" xmlns="http://www.w3.org/2000/svg">
  <defs id="defs1" />
  <g id="g1">
    <path style="fill:#ffffff" d="M 236,770.28215 c 15.24286,-2.08132 30.41287,-5.08752 32.46799,-6.43409 1.21705,-0.79744 4.1813,-1.97995 6.58722,-2.6278 2.40592,-0.64784 5.46342,-2.03453 6.79445,-3.08151 1.33103,-1.04699 2.92187,-1.91614 3.5352,-1.93144 0.61333,-0.0153 2.8828,-1.3653 5.04328,-3 2.16048,-1.6347 4.41048,-2.97471 5,-2.9778 1.40435,-0.007 10.85865,-9.14276 17.17601,-16.59665 6.54828,-7.72634 10.10463,-13.20015 10.9785,-16.89773 0.38995,-1.65 1.50953,-4.14692 2.48794,-5.54871 0.99634,-1.42747 2.27861,-6.19812 2.91475,-10.84423 0.6247,-4.56254 1.55856,-9.40742 2.07524,-10.76639 1.21183,-3.18736 1.22405,-22.94032 0.0156,-25.19836 -0.50811,-0.94941 -1.43261,-5.4421 -2.05445,-9.98376 -0.6814,-4.97665 -2.10228,-10.085 -3.57616,-12.85699 C 324.1005,639.007 323,636.35246 323,635.63771 c 0,-0.71474 -1.0125,-2.42412 -2.25,-3.7986 -1.2375,-1.37449 -3.80901,-4.66018 -5.71446,-7.30153 -4.91166,-6.80856 -16.69155,-16.6105 -22.21072,-18.48134 -1.82865,-0.61986 -4.46501,-1.91954 -5.85858,-2.88818 -1.39357,-0.96865 -4.20999,-2.07563 -6.2587,-2.45997 C 276.90776,599.99524 272,596.85571 272,595.1378 c 0,-0.52369 1.2375,-1.42235 2.75,-1.99701 3.85294,-1.4639 13.25,-7.81781 13.25,-8.95911 0,-0.5206 0.57378,-0.94655 1.27508,-0.94655 1.05171,0 9.09529,-8.05722 15.14122,-15.1669 2.09485,-2.46342 9.5837,-16.94706 9.5837,-18.53516 0,-0.7526 0.66306,-2.3803 1.47348,-3.6171 3.08535,-4.7089 4.39805,-24.9135 2.61624,-40.2683 -0.89334,-7.6985 -5.16571,-19.6782 -8.19435,-22.977 -1.04246,-1.1354 -1.89537,-2.6311 -1.89537,-3.3236 0,-1.9985 -12.08633,-13.2504 -15.97351,-14.8707 -1.93957,-0.8085 -4.66042,-2.2754 -6.04634,-3.2598 -1.38592,-0.9844 -4.76092,-2.124 -7.5,-2.5323 -2.73908,-0.4084 -7.90372,-1.5765 -11.47697,-2.5958 -8.03718,-2.2927 -23.22299,-2.468 -31.31079,-0.3614 -3.15029,0.8205 -11.11942,2.1933 -17.70917,3.0506 -6.58975,0.8573 -13.44428,2.1614 -15.23229,2.8979 -1.78801,0.7366 -6.62593,1.6426 -10.75093,2.0135 -4.125,0.3708 -10.875,1.5138 -15,2.5399 -4.125,1.0262 -11.29205,2.3797 -15.92677,3.0078 -4.63472,0.6282 -10.25972,1.7558 -12.5,2.5059 -2.24028,0.75 -7.87935,1.8769 -12.53128,2.5042 -12.60065,1.6992 -14.95771,3.4527 -15.01015,11.1668 -0.043,6.3302 1.62595,7.8179 8.78963,7.8351 8.18195,0.02 9.5849,0.6331 13.32298,5.8254 l 3.35559,4.661 v 116.49996 116.5 l -2.71185,5.36979 c -2.26797,4.49086 -3.5369,5.75203 -7.75251,7.70515 -2.77236,1.28446 -6.63661,2.63478 -8.58722,3.00071 -1.9506,0.36594 -4.19947,1.31826 -4.99749,2.11627 -2.10025,2.10025 -1.80022,9.29528 0.51323,12.30808 l 1.9197,2.5 40.80807,0.53218 c 22.44444,0.2927 45.98307,0.61547 52.30807,0.71728 6.325,0.10181 14.425,-0.21429 18,-0.70244 z m -25.29782,-24.06664 c -2.54918,-2.00519 -2.82206,-2.85855 -5.6853,-17.7796 C 204.40894,725.26776 204,702.29099 204,671.30092 v -51.83577 l 2.68393,-1.75858 c 4.41329,-2.8917 10.01831,-2.91674 21.20896,-0.0948 9.24471,2.33126 13.69486,4.51077 17.44575,8.54424 4.19967,4.51607 5.58091,6.51271 8.38889,12.12651 1.95768,3.91386 3.80182,9.79684 4.68719,14.95258 0.80281,4.675 1.91832,10.525 2.47892,13 1.25921,5.55938 1.30983,26.90226 0.0783,33 -0.49987,2.475 -1.59653,8.3719 -2.437,13.10422 -0.84048,4.73232 -2.83546,11.48232 -4.43328,15 -3.03637,6.68465 -11.82696,16.89581 -14.54528,16.89581 -0.85601,0 -1.55638,0.42885 -1.55638,0.953 0,1.67132 -7.2291,3.03567 -16.11514,3.04142 -7.13427,0.005 -9.05648,-0.34158 -11.18268,-2.01404 z M 204.75,594.67319 c -1.11168,-1.14339 -0.89916,-89.94422 0.232,-96.93802 2.058,-12.7245 2.7384,-13.9529 9.44947,-17.0607 7.94198,-3.6779 18.32708,-3.9542 21.9154,-0.5832 1.25512,1.1791 2.82965,2.1439 3.49897,2.1439 0.66931,0 1.50103,0.7875 1.84827,1.75 0.34724,0.9625 1.45514,2.9403 2.462,4.395 1.00686,1.4548 2.4871,5.5048 3.28942,9 0.80232,3.4953 2.1553,8.8155 3.00662,11.8229 1.74717,6.1721 2.10344,35.1569 0.52892,43.0321 -1.64365,8.2209 -5.18028,20.47884 -6.34739,21.99996 -0.633,0.825 -1.9575,3.075 -2.94333,5 -1.87395,3.65919 -10.97188,10.99729 -13.64267,11.00374 -0.85122,0.002 -3.12268,0.97136 -5.04768,2.15401 -3.61047,2.21814 -16.71809,3.85591 -18.25,2.28031 z m 301.01827,175.72632 c 1.55241,-0.98535 3.23959,-6.58798 3.20949,-10.65778 -0.0416,-5.6309 -2.41381,-7.18023 -14.47776,-9.45581 -11.56941,-2.1823 -16.13208,-3.6175 -18.32798,-5.76511 -0.73038,-0.71433 -2.19288,-1.76166 -3.25,-2.32741 C 471.86491,741.62765 471,740.60074 471,739.91139 c 0,-0.68936 -1.0125,-3.03603 -2.25,-5.21482 l -2.25,-3.96144 -0.28616,-136.5 c -0.29425,-140.35896 -0.28474,-140.76386 3.47492,-147.99996 0.71441,-1.375 1.30169,-3.036 1.30508,-3.6911 0.0113,-2.1764 11.67644,-11.5029 16.62917,-13.2953 2.68234,-0.9707 6.22699,-2.2736 7.87699,-2.8952 1.65,-0.6216 4.87059,-1.5836 7.15687,-2.1378 3.36112,-0.8147 4.36613,-1.6078 5.25,-4.1433 1.66005,-4.762 1.33107,-10.3219 -0.76382,-12.909 -1.85172,-2.2868 -1.89079,-2.2899 -13.8587,-1.1188 -6.60096,0.6459 -13.5648,1.8275 -15.47521,2.6257 -1.9104,0.7983 -5.91149,1.7345 -8.8913,2.0807 -8.19442,0.9518 -15.96499,2.4703 -20.41784,3.9898 -2.2,0.7508 -6.925,1.6411 -10.5,1.9785 -3.575,0.3374 -9.65,1.4629 -13.5,2.5011 -3.85,1.0381 -10.15,2.1734 -14,2.5228 -3.85,0.3494 -9.925,1.4953 -13.5,2.5466 -3.575,1.0512 -10.60153,2.3664 -15.61452,2.9227 -5.01299,0.5563 -10.63799,1.6335 -12.5,2.3939 -1.86201,0.7603 -5.53246,1.6918 -8.15655,2.07 -6.53229,0.9413 -8.72893,3.4811 -8.72893,10.0922 0,7.6547 1.38285,8.5077 14.51377,8.953 10.06117,0.3412 10.89471,0.5306 13.55562,3.0799 1.55939,1.494 4.09421,5.2047 5.63293,8.246 l 2.79768,5.5296 v 131.07897 131.07899 l -2.25,3.96144 c -1.2375,2.17879 -2.25,4.60834 -2.25,5.39898 0,0.79065 -1.64304,3.03325 -3.65121,4.98355 -3.1073,3.01777 -5.30454,3.9623 -14.75,6.34058 -6.70084,1.6872 -11.59411,3.46882 -12.34879,4.49614 -1.61602,2.19982 -1.61527,10.43752 10e-4,12.64811 0.68814,0.94109 2.60064,2.11342 4.25,2.60518 3.736,1.1139 146.52557,1.33579 148.26711,0.2304 z m 174.35074,-0.63448 c 4.60954,-0.80856 12.01205,-2.10787 16.45001,-2.88735 4.43797,-0.77949 9.93254,-2.36794 12.21016,-3.5299 2.27763,-1.16196 4.8771,-2.11265 5.77661,-2.11265 0.89951,0 2.88366,-0.88879 4.40923,-1.97509 1.52557,-1.08631 3.96607,-2.42841 5.42332,-2.98246 5.85955,-2.22779 21.64818,-15.74061 26.17125,-22.39885 9.14209,-13.45771 13.32097,-23.32955 15.51174,-36.6436 1.04075,-6.325 1.90046,-14.70888 1.91047,-18.63084 0.026,-10.20603 -3.50616,-32.09913 -5.94221,-36.8306 C 760.91782,639.5949 760,637.06808 760,636.15855 c 0,-0.90954 -0.84378,-2.72689 -1.87507,-4.03856 -1.03128,-1.31167 -2.71878,-4.00979 -3.75,-5.99583 -6.55188,-12.61838 -21.22523,-26.30553 -36.63024,-34.1683 l -6.7553,-3.44794 3.7553,-2.46619 c 2.06542,-1.35641 5.24037,-2.97725 7.05544,-3.60186 4.40691,-1.51652 7.58093,-4.05397 18.22586,-14.57054 C 744.9617,562.99317 749,558.22267 749,557.26827 c 0,-0.9544 1.13607,-3.8719 2.5246,-6.4834 3.76435,-7.0797 5.27453,-25.965 3.5935,-44.9376 -0.68771,-7.7617 -1.82654,-15.0121 -2.53074,-16.1121 -0.7042,-1.1 -2.09076,-4.475 -3.08126,-7.5 -0.9905,-3.025 -2.63457,-6.5732 -3.6535,-7.8849 -1.01893,-1.3117 -1.8526,-2.8479 -1.8526,-3.4138 0,-1.9045 -19.31981,-22.7013 -21.08903,-22.7013 -0.32994,0 -1.90738,-1.1245 -3.50543,-2.4988 -1.59805,-1.3743 -3.43351,-2.4993 -4.07881,-2.5 -0.64531,-7e-4 -2.51027,-1.1262 -4.14436,-2.5012 -1.6341,-1.375 -3.35612,-2.5101 -3.82673,-2.5224 -0.4706,-0.012 -3.55564,-1.3523 -6.85564,-2.9776 -3.3,-1.6254 -6.36219,-2.9653 -6.80486,-2.9776 -0.44268,-0.012 -2.85189,-0.955 -5.35381,-2.0947 -2.50192,-1.1398 -7.26402,-2.5096 -10.58244,-3.044 -3.31843,-0.5344 -7.60509,-1.6283 -9.52593,-2.4309 -1.92083,-0.8025 -8.72155,-2.1096 -15.11269,-2.9046 -6.39115,-0.795 -13.53733,-2.1252 -15.88041,-2.9561 -2.34307,-0.8308 -7.74307,-1.8088 -12,-2.1734 -4.25692,-0.3645 -10.08554,-1.4679 -12.95249,-2.452 -2.86694,-0.984 -8.71694,-2.1107 -13,-2.5039 -4.28305,-0.3931 -10.48737,-1.5363 -13.78737,-2.5403 -3.3,-1.004 -10.05,-2.3181 -15,-2.9201 -4.95,-0.6021 -11.97352,-1.9739 -15.60781,-3.0486 -7.75893,-2.2942 -16.58236,-2.5033 -19.28563,-0.4569 -2.5789,1.9522 -3.42986,10.5976 -1.35483,13.7645 1.67389,2.5547 10.36216,7.108 15.74827,8.2533 7.09356,1.5083 15.88802,10.5076 18.16012,18.583 1.82957,6.5026 2.52383,272.85694 0.74216,284.73341 -1.26813,8.4533 -3.27107,12.28493 -9.03497,17.28393 -2.00529,1.73918 -7.8005,3.86649 -10.56809,3.87934 -4.07715,0.0189 -11.30579,2.45634 -13.60355,4.58695 -4.17688,3.87303 -3.52632,12.49451 1.21767,16.13683 2.54562,1.95446 131.95998,1.78429 143.20567,-0.1883 z m -29.81932,-23.88392 c -0.43983,-0.7447 -1.73314,-1.84323 -2.87402,-2.44116 -1.44516,-0.75741 -2.88974,-3.759 -4.76265,-9.89599 l -2.68832,-8.80883 0.0127,-62.77144 0.0127,-62.77144 2.45346,-1.11787 c 3.34785,-1.52538 17.68024,0.39174 23.24823,3.10972 2.31094,1.12807 4.60592,2.05103 5.09997,2.05103 0.49404,0 2.76188,1.35 5.03964,3 2.27776,1.65 4.45083,3 4.82904,3 0.8701,0 7.32966,7.01 7.32966,7.95425 0,0.38657 1.30149,2.69251 2.89219,5.12431 1.59071,2.43179 3.22224,5.97854 3.62563,7.88167 0.40339,1.90313 1.54037,5.05313 2.52662,7 1.55013,3.05999 4.45084,23.20199 5.47822,38.03977 0.3847,5.55585 -4.13909,41.8329 -5.40713,43.3608 -0.63082,0.76008 -1.81039,3.61605 -2.62127,6.34658 -0.81088,2.73054 -2.37882,5.78316 -3.4843,6.7836 -1.10548,1.00045 -2.00997,2.31175 -2.00999,2.91401 -4e-5,1.64145 -6.73389,6.73792 -12.97837,9.8226 -4.85003,2.39585 -6.70142,2.73032 -15.22191,2.75 -7.11624,0.0164 -9.91334,-0.33829 -10.5,-1.33161 z M 642,573.31297 c -1.30492,-0.87442 -1.5,-8.6503 -1.5,-59.7915 v -58.7863 l 2.33597,-4.8386 2.33596,-4.8385 10.23183,0.3385 c 10.00234,0.331 10.35704,0.4249 15.8148,4.1864 9.3835,6.4673 16.24732,18.2732 17.82073,30.6522 0.5243,4.125 1.66288,11.0037 2.53018,15.2859 3.19113,15.7563 -0.31267,54.8177 -5.55292,61.9056 -1.1091,1.5001 -2.02466,3.3082 -2.03458,4.018 -0.022,1.5732 -7.33071,7.78899 -9.16471,7.7942 -0.72449,0.002 -2.89226,0.99534 -4.81726,2.2073 -2.9737,1.87221 -5.22928,2.25382 -15,2.53775 -6.64279,0.19303 -12.13355,-0.0903 -13,-0.67095 z m 196,195.34652 c 6.58762,-0.3154 7.77371,-0.67397 9.75,-2.94749 2.41644,-2.77987 2.8196,-5.84851 1.29516,-9.8581 -0.9983,-2.62571 -0.97132,-2.61484 -16.54516,-6.66406 l -8,-2.08001 -2.69435,-5.29708 c -2.53475,-4.98333 -2.61646,-5.55713 -1.37945,-9.68735 0.72319,-2.41465 1.9044,-7.76527 2.62491,-11.89027 0.72051,-4.125 1.60506,-7.725 1.96565,-8 1.07554,-0.82023 2.98324,-7.10849 2.98324,-9.8335 0,-1.39428 0.92951,-4.45517 2.06559,-6.80198 1.13607,-2.34682 2.60083,-6.42639 3.25503,-9.06573 l 1.18945,-4.79879 20.99496,0.2474 c 11.54724,0.13606 28.29085,0.52074 37.20804,0.85482 l 16.21307,0.60743 2.11661,3.58737 c 1.16413,1.97306 2.91061,6.76338 3.88106,10.64518 0.97046,3.88179 2.50961,8.49795 3.42033,10.25814 0.91072,1.76019 1.65586,4.1596 1.65586,5.33203 0,1.17243 1.17137,5.52546 2.60305,9.6734 3.17282,9.19248 3.20211,21.5011 0.0566,23.80112 -1.50706,1.10199 -9.06569,3.18597 -18.33976,5.05642 -3.77703,0.76178 -5.31993,3.22264 -5.31993,8.48507 0,4.22751 0.37375,5.15057 2.70413,6.67857 2.43139,1.59422 5.53282,1.76806 30.75,1.72361 28.0912,-0.0495 69.13181,-1.17583 73.22601,-2.0096 1.199,-0.24418 2.8865,-1.15043 3.75,-2.01389 1.6149,-1.61494 2.1097,-7.12512 0.8046,-8.95989 -0.9529,-1.33953 -10.63236,-7.46342 -11.82229,-7.47956 -1.38146,-0.0187 -5.73479,-6.98937 -7.06885,-11.31878 -0.64929,-2.10714 -1.83498,-4.58214 -2.63487,-5.5 -0.79989,-0.91786 -2.01048,-4.0481 -2.69021,-6.95609 -0.67973,-2.90798 -1.8839,-5.93527 -2.67593,-6.7273 -0.79203,-0.79203 -1.83912,-3.81277 -2.32686,-6.71275 -0.48774,-2.89999 -1.76394,-7.0727 -2.83599,-9.2727 -1.07206,-2.2 -2.27999,-6.025 -2.6843,-8.5 -0.40431,-2.475 -1.54362,-6.09593 -2.53179,-8.04651 -0.98817,-1.95059 -2.12009,-5.32559 -2.51537,-7.5 -0.39524,-2.17442 -1.50236,-5.52849 -2.46024,-7.45349 -0.95787,-1.925 -2.24547,-5.87736 -2.86132,-8.78303 -0.61586,-2.90567 -1.95802,-6.95567 -2.9826,-9 -1.02457,-2.04433 -2.16306,-5.67076 -2.52996,-8.05874 -0.36691,-2.38797 -1.49605,-5.98797 -2.5092,-8 -1.01316,-2.01202 -2.16507,-5.87083 -2.55981,-8.57512 -0.39474,-2.7043 -1.33554,-5.85983 -2.09068,-7.01231 -0.75513,-1.15247 -2.06859,-5.09491 -2.91881,-8.76098 -0.85022,-3.66606 -2.18962,-7.93552 -2.97646,-9.48769 -1.79464,-3.54025 -5.24085,-13.95889 -7.21818,-21.82213 -0.82983,-3.3 -2.37103,-7.84929 -3.42488,-10.10953 -1.05386,-2.26024 -1.9161,-4.82545 -1.9161,-5.70043 0,-2.1158 -6.79333,-23.1089 -9.14351,-28.2558 -1.02107,-2.2361 -1.85649,-5.1315 -1.85649,-6.4342 0,-1.3027 -0.87403,-4.1982 -1.94229,-6.4343 -1.06826,-2.2362 -2.65896,-7.1989 -3.5349,-11.0283 -0.87594,-3.8294 -2.01324,-7.2225 -2.52734,-7.5402 -0.5141,-0.3178 -1.62785,-3.8727 -2.47501,-7.9 -0.84715,-4.0272 -2.16644,-8.5091 -2.93174,-9.9597 -0.7653,-1.4507 -1.91141,-4.6625 -2.5469,-7.1375 -0.6355,-2.475 -2.33612,-7.3448 -3.77916,-10.8218 -2.13746,-5.1502 -3.32417,-6.6791 -6.40334,-8.25 -2.07881,-1.0605 -4.43804,-1.9282 -5.24276,-1.9282 -2.97804,0 -7.35843,4.9178 -8.5321,9.5788 -0.63801,2.5338 -1.77384,5.5776 -2.52407,6.764 -0.75024,1.1864 -1.68484,3.7322 -2.07689,5.6572 -0.39206,1.925 -1.73556,5.975 -2.98556,9 -1.25,3.025 -2.59739,7.525 -2.9942,10 -0.39681,2.475 -1.3303,5.1914 -2.07442,6.0365 -0.74412,0.8451 -2.01116,4.3581 -2.81564,7.8066 -0.80449,3.4485 -1.9298,6.8328 -2.50071,7.5207 -0.5709,0.6879 -1.71918,3.866 -2.55174,7.0624 -0.83255,3.1964 -1.95755,6.3464 -2.5,7 -0.54244,0.6536 -1.64024,3.6992 -2.43955,6.7679 -0.7993,3.0687 -2.12425,6.877 -2.94431,8.4629 -0.82007,1.5858 -1.95379,5.3866 -2.51937,8.4461 -0.56559,3.0595 -1.91481,7.10045 -2.99827,8.97982 -1.08345,1.87937 -2.26634,5.26536 -2.62863,7.52441 -0.36228,2.25905 -1.75499,6.27282 -3.0949,8.91948 -1.33991,2.64666 -2.4362,5.65377 -2.4362,6.68247 0,1.02869 -0.84456,3.53993 -1.87679,5.58052 -1.03224,2.04059 -2.38022,6.08542 -2.99553,8.98851 -0.6153,2.9031 -1.77762,6.28395 -2.58294,7.51302 -0.80531,1.22906 -1.99063,4.68931 -2.63405,7.68944 -0.64341,3.00014 -2.00733,7.06155 -3.03093,9.02538 -1.02361,1.96383 -2.25633,5.68616 -2.73939,8.27185 -0.48306,2.58568 -1.34472,5.26841 -1.91481,5.9616 -0.57008,0.6932 -1.81813,3.96036 -2.77343,7.26036 -0.9553,3.3 -2.31332,6.9 -3.01782,8 -0.7045,1.1 -1.76611,4.67387 -2.35913,7.94193 -0.59303,3.26806 -1.52358,6.21716 -2.06789,6.55356 -0.54431,0.33641 -1.73881,3.73754 -2.65445,7.55808 -0.91564,3.82054 -2.25417,7.63981 -2.97452,8.48727 -0.72034,0.84746 -1.82909,3.96259 -2.46388,6.92251 -0.63479,2.95992 -2.22523,7.39607 -3.5343,9.8581 -1.30908,2.46204 -2.38014,5.43428 -2.38014,6.60498 0,1.17071 -0.61011,3.01619 -1.35581,4.10106 -0.74569,1.08488 -2.15351,4.44751 -3.12847,7.47251 -0.97497,3.025 -2.30285,6.175 -2.95084,7 -0.64798,0.825 -1.65458,2.62568 -2.23686,4.00152 -1.99106,4.70448 -7.806,10.12443 -14.06931,13.11364 -4.10532,1.95929 -6.70617,3.91692 -7.55474,5.68639 -2.64494,5.5153 -0.16307,13.5103 4.5214,14.56505 2.18123,0.49112 50.20639,-0.19685 65.77463,-0.94224 z m 35.5,-110.42586 c -10.45,-0.40577 -20.65536,-0.79643 -22.67857,-0.86813 -5.27343,-0.18689 -7.11857,-2.40108 -6.26383,-7.51667 0.37803,-2.26253 1.07798,-4.36264 1.55544,-4.66689 0.47746,-0.30426 1.77029,-4.08066 2.87294,-8.39201 1.10266,-4.31134 2.39892,-8.3374 2.88058,-8.9468 0.48167,-0.6094 1.43322,-3.583 2.11456,-6.608 0.68134,-3.025 2.08596,-7.525 3.12138,-10 1.03542,-2.475 2.35058,-6.69433 2.92258,-9.37629 0.572,-2.68196 1.8744,-6.73196 2.89422,-9 1.01983,-2.26804 2.17436,-5.69871 2.56563,-7.62371 0.39126,-1.925 1.34423,-4.49974 2.11771,-5.72165 0.77347,-1.2219 1.89159,-4.4844 2.4847,-7.25 0.59311,-2.76559 1.3786,-5.02336 1.74552,-5.01726 1.13199,0.0188 5.86837,12.23356 6.58761,16.98891 0.37434,2.475 1.38911,5.5825 2.25505,6.90555 0.86594,1.32306 2.2137,5.14584 2.99502,8.49507 0.78132,3.34923 2.0146,6.99609 2.74062,8.10414 0.72602,1.10805 1.83059,4.39526 2.4546,7.30491 0.62401,2.90965 1.78389,6.54593 2.5775,8.08061 0.79362,1.53469 2.10632,5.4497 2.91712,8.70003 0.81079,3.25033 2.14771,7.93469 2.97091,10.40969 3.50892,10.54963 4.7843,15.21774 4.29213,15.70991 -0.95392,0.95392 -8.89109,1.03537 -28.12342,0.28859 z m 165.3,-214.19846 c 2.0875,-2.0876 1.3401,-3.5197 -4.05,-7.7599 -2.8875,-2.2715 -5.9252,-4.6723 -6.7504,-5.3351 -0.8252,-0.6628 -2.8502,-2.0508 -4.5,-3.0845 -1.6498,-1.0337 -4.2371,-3.0304 -5.7496,-4.4371 -1.5125,-1.4067 -2.75,-2.1642 -2.75,-1.6834 0,0.4808 -1.2375,-0.2837 -2.75,-1.6988 -1.5125,-1.4151 -4.158,-3.2826 -5.8788,-4.1501 -1.7209,-0.8674 -3.3942,-2.2688 -3.7186,-3.1141 -0.3244,-0.8454 -1.2005,-1.537 -1.9469,-1.537 -0.74639,0 -2.41395,-1.125 -3.7057,-2.5 -1.29175,-1.375 -2.83269,-2.5183 -3.42431,-2.5407 -0.59163,-0.022 -2.63369,-1.3723 -4.53792,-3 -1.90422,-1.6276 -3.96328,-2.9593 -4.57568,-2.9593 -0.6124,0 -2.17034,-1.125 -3.46209,-2.5 -1.29175,-1.375 -2.91967,-2.5 -3.61761,-2.5 -0.69794,0 -1.857,-0.8064 -2.57569,-1.792 -1.11088,-1.5234 -8.06488,-6.5446 -18.53201,-13.3811 -1.40888,-0.9202 -2.83455,-2.0949 -3.16815,-2.6105 -0.3336,-0.5156 -1.9576,-1.6291 -3.6089,-2.4745 -1.6513,-0.8455 -3.85854,-2.4832 -4.90499,-3.6396 -1.04644,-1.1563 -2.48236,-2.1023 -3.19093,-2.1023 -0.70857,0 -1.87633,-0.833 -2.59502,-1.8511 -0.71868,-1.0181 -2.7692,-2.6047 -4.5567,-3.5257 -1.7875,-0.921 -3.25,-2.0032 -3.25,-2.4048 0,-0.4016 -1.4625,-1.3494 -3.25,-2.1062 -1.7875,-0.7568 -3.7,-1.8792 -4.25,-2.4941 -2.1276,-2.3789 -17.32614,-13.4282 -19.35772,-14.073 -1.17826,-0.3739 -2.14228,-1.088 -2.14228,-1.5868 0,-0.4989 -1.30737,-1.583 -2.90526,-2.4093 -1.59789,-0.8263 -3.51039,-2.0868 -4.25,-2.801 -0.73961,-0.7143 -4.26974,-3.2501 -7.84474,-5.6352 -3.575,-2.3851 -6.95,-4.8487 -7.5,-5.4747 -0.90217,-1.0268 -9.73648,-7.2041 -19.35726,-13.5354 -2.00351,-1.3184 -5.66774,-4.048 -8.14274,-6.0657 -2.475,-2.0177 -6.68499,-4.9889 -9.35553,-6.6028 -2.67054,-1.6138 -6.22478,-4.1717 -7.89831,-5.6842 -1.67354,-1.5125 -3.77021,-2.75 -4.65928,-2.75 -0.88908,0 -3.26879,-0.8856 -5.28826,-1.968 -2.01947,-1.0824 -6.42591,-2.4115 -9.79207,-2.9536 -6.39418,-1.0297 -12.38427,-4.0144 -13.40733,-6.6805 -0.32957,-0.8588 -0.59922,-7.5704 -0.59922,-14.9146 0,-7.3442 -0.40011,-14.3949 -0.88913,-15.6682 -2.03858,-5.308 -6.53284,-8.756 -19.86087,-15.237 -2.8875,-1.4041 -5.25,-2.9874 -5.25,-3.5185 0,-0.5311 -1.6875,-1.4343 -3.75,-2.0071 -4.9038,-1.3618 -51.73779,-1.397 -54.27199,-0.041 -2.66222,1.4248 -3.96595,7.0707 -3.97243,17.2031 -0.005,7.696 -0.24002,8.8403 -2.011,9.7881 -2.43272,1.3019 -11.11254,-0.1384 -21.49458,-3.5668 -3.85,-1.2714 -8.6422,-2.5765 -10.64934,-2.9003 -2.00714,-0.3238 -5.01219,-1.2686 -6.67789,-2.0995 -1.6657,-0.831 -5.8735,-2.0031 -9.35066,-2.6048 -3.47716,-0.6017 -7.89711,-1.8731 -9.82211,-2.8252 -1.925,-0.9522 -5.975,-2.0478 -9,-2.4347 -3.025,-0.3868 -7.35698,-1.5238 -9.62662,-2.5267 -2.26964,-1.0028 -6.54464,-2.1425 -9.5,-2.5327 -2.95536,-0.3902 -7.35664,-1.571 -9.78063,-2.6241 -2.42398,-1.0531 -6.24898,-2.1935 -8.5,-2.5342 -2.25101,-0.3407 -6.56775,-1.629 -9.59275,-2.8628 -3.025,-1.2339 -7.67905,-2.558 -10.34234,-2.9424 -2.66329,-0.3844 -6.73567,-1.5105 -9.04974,-2.5025 -2.31406,-0.9919 -6.66001,-2.1253 -9.65765,-2.5186 -2.99765,-0.3933 -6.80027,-1.3813 -8.45027,-2.1956 -1.65,-0.8143 -6.27472,-2.1169 -10.27716,-2.8947 -4.00244,-0.7777 -8.6489,-2.1234 -10.32548,-2.9904 -1.67657,-0.867 -5.57813,-1.9881 -8.67014,-2.4913 -3.09201,-0.5033 -7.00611,-1.5719 -8.69801,-2.3747 -1.6919,-0.8029 -6.37783,-2.1482 -10.41316,-2.9896 -4.03534,-0.8414 -7.91018,-2.0055 -8.61076,-2.5869 -0.70059,-0.5815 -4.97796,-1.7085 -9.50529,-2.5044 -4.52733,-0.796 -8.80476,-1.923 -9.5054,-2.5045 -0.70065,-0.5815 -5.25542,-1.7522 -10.12172,-2.6016 -4.86631,-0.8494 -9.08928,-1.9351 -9.38439,-2.4126 -0.29511,-0.4775 -2.77575,-1.3694 -5.51253,-1.982 -2.73678,-0.6127 -8.35096,-2.1885 -12.47596,-3.5019 -4.125,-1.3133 -9.3,-2.6977 -11.5,-3.0763 -2.2,-0.3786 -5.26858,-1.3309 -6.81907,-2.1162 -1.55049,-0.7852 -6.27549,-2.0744 -10.5,-2.8649 -4.22451,-0.7904 -9.25593,-2.1058 -11.18093,-2.9231 -1.925,-0.8172 -6.36663,-1.9266 -9.87029,-2.4652 -3.50366,-0.5387 -7.39542,-1.651 -8.64835,-2.472 -1.25294,-0.8209 -5.36131,-2.0367 -9.12971,-2.7016 -3.76841,-0.6649 -7.52665,-1.7525 -8.35165,-2.4169 -0.825,-0.6643 -3.23384,-1.519 -5.35298,-1.8992 -3.24649,-0.5825 -4.49613,-0.2482 -7.93879,2.1233 -2.24719,1.5481 -5.02731,3.7147 -6.17803,4.8147 -1.15073,1.1 -4.05952,3.575 -6.464,5.5 -2.40447,1.925 -5.44847,4.5125 -6.76444,5.75 -1.31597,1.2375 -2.80638,2.25 -3.31203,2.25 -0.50565,0 -1.35035,0.8053 -1.87712,1.7895 -0.52676,0.9843 -2.1176,2.4104 -3.53518,3.169 -1.41759,0.7587 -2.57743,1.9895 -2.57743,2.7352 0,0.7457 -1.0125,1.7535 -2.25,2.2397 -1.2375,0.4862 -3.00192,1.7126 -3.92093,2.7253 -0.91902,1.0127 -3.7864,3.4163 -6.37197,5.3413 -2.58557,1.925 -6.885,5.6089 -9.55428,8.1864 -2.66928,2.5775 -5.49496,5.0525 -6.27927,5.5 -1.46072,0.8334 -10.22356,8.2289 -13.9976,11.8136 -3.02198,2.8703 -9.8323,8.5882 -13.69698,11.5 -1.82501,1.375 -4.53616,3.7375 -6.02479,5.25 -1.48863,1.5125 -2.93047,2.75 -3.20409,2.75 -0.27362,0 -2.768,2.1375 -5.54306,4.75 -2.77505,2.6125 -6.98314,6.2623 -9.35129,8.1107 -3.7929,2.9605 -6.74385,5.481 -18.89538,16.1393 -1.56764,1.375 -4.21932,3.625 -5.89262,5 -1.6733,1.375 -3.99934,3.35 -5.16897,4.3889 -1.84834,1.6417 -12.97778,11.1406 -20.96844,17.8963 -9.7729,8.2625 -13.60884,11.5782 -16.44495,14.2148 -1.77488,1.65 -4.83487,4.17 -6.79999,5.6001 -1.96511,1.4301 -6.33006,5.0301 -9.69989,8 -8.03469,7.0812 -11.266,9.8689 -14.95257,12.8999 -1.67242,1.375 -4.03544,3.4 -5.25115,4.5 -1.21572,1.1 -5.8152,5.0589 -10.22108,8.7977 -4.40589,3.7388 -9.25598,7.9013 -10.77798,9.25 -1.52201,1.3487 -3.17919,2.4523 -3.68262,2.4523 -0.50343,0 -1.20097,0.9 -1.5501,2 -0.34913,1.1 -1.26908,2 -2.04433,2 -0.77526,0 -2.14669,1.125 -3.04763,2.5 -0.90093,1.375 -2.23894,2.5 -2.97336,2.5 -0.73441,0 -1.69516,0.6401 -2.13499,1.4225 -0.43983,0.7824 -4.85525,4.7199 -9.812039,8.75 -9.495702,7.7205 -9.541673,7.76 -18.987651,16.35 -9.179472,8.3475 -9.5,8.7045 -9.5,10.581 0,3.1995 2.929164,5.0831 6.886299,4.428 1.987535,-0.329 8.818434,-1.198 15.179774,-1.9312 6.36134,-0.7332 12.530507,-1.8492 13.709257,-2.4801 1.17875,-0.6308 6.99902,-1.6235 12.93393,-2.206 5.93491,-0.5824 13.71574,-1.7062 17.29074,-2.4973 3.575,-0.7911 12.05502,-2.1072 18.84449,-2.9248 6.78947,-0.8175 14.88947,-2.1407 18,-2.9405 3.11053,-0.7998 10.38051,-1.9335 16.15551,-2.5193 5.775,-0.5858 12.975,-1.7267 16,-2.5353 3.025,-0.8086 10.45,-1.9686 16.5,-2.5777 6.05,-0.6092 12.8,-1.7452 15,-2.5246 2.2,-0.7794 8.725,-1.8717 14.5,-2.4274 5.775,-0.5557 14.1,-1.8712 18.5,-2.9233 4.4,-1.0521 12.95,-2.3784 19,-2.9472 6.05,-0.5689 13.60915,-1.7233 16.7981,-2.5654 3.18896,-0.8421 10.61396,-1.961 16.5,-2.4864 5.88605,-0.5254 12.9519,-1.6443 15.7019,-2.4864 2.75,-0.8421 9.95,-2.0478 16,-2.6793 6.05,-0.6315 13.64612,-1.9877 16.88027,-3.0137 3.23415,-1.0261 7.73415,-1.8745 10,-1.8854 5.3355,-0.026 16.51856,-1.611 24.11973,-3.4192 3.3,-0.785 10.80054,-1.9224 16.66786,-2.5275 5.86732,-0.6051 13.09305,-1.7319 16.05717,-2.5039 2.96412,-0.7721 10.31358,-1.9167 16.33214,-2.5435 6.01856,-0.6269 13.08927,-1.7586 15.71269,-2.515 2.62343,-0.7563 9.37343,-1.8642 15,-2.462 5.62658,-0.5978 13.60514,-1.9319 17.73014,-2.9646 4.125,-1.0327 12.675,-2.4113 19,-3.0636 6.325,-0.6523 11.725,-1.3126 12,-1.4673 1.09521,-0.6164 25.22106,3.4011 29.22469,4.8664 2.35142,0.8607 7.65031,2.0073 11.77531,2.548 4.125,0.5408 9.40559,1.6558 11.73464,2.4778 2.32904,0.822 7.95404,1.996 12.5,2.6088 4.54595,0.6128 10.09831,1.7278 12.33859,2.4779 2.24028,0.75 7.86528,1.8658 12.5,2.4796 4.63472,0.6137 10.45177,1.768 12.92677,2.5651 2.475,0.7971 9,2.0903 14.5,2.8738 5.5,0.7835 11.575,2.0787 13.5,2.8783 1.925,0.7995 7.325,1.9982 12,2.6638 4.675,0.6655 10.3,1.9039 12.5,2.7519 2.2,0.8481 7.42779,1.8998 11.6173,2.3373 4.18952,0.4374 10.48952,1.6785 14,2.758 3.51049,1.0794 9.71675,2.2938 13.79169,2.6986 4.07495,0.4048 8.93053,1.3717 10.79019,2.1487 1.85965,0.777 7.82105,2.0359 13.24755,2.7974 5.4265,0.7615 10.76403,1.865 11.86118,2.4522 1.09715,0.5871 6.42671,1.7668 11.84345,2.6214 5.41675,0.8546 11.87364,2.2061 14.34864,3.0034 2.475,0.7973 8.1,1.9412 12.5,2.542 4.4,0.6008 10.7,1.9248 14,2.9422 3.3,1.0174 9.08637,2.1483 12.8586,2.5131 3.77222,0.3647 9.27246,1.4936 12.22274,2.5087 2.95029,1.015 8.63892,2.1515 12.64141,2.5255 4.00249,0.374 8.62725,1.2542 10.27725,1.9561 4.83067,2.055 5.93971,2.3192 14.68399,3.498 4.57381,0.6167 10.2635,1.7737 12.64375,2.5713 2.38026,0.7976 8.72054,2.0641 14.08951,2.8145 5.36897,0.7504 10.66466,1.8476 11.76819,2.4382 1.10354,0.5906 6.01326,1.5669 10.91049,2.1696 4.89724,0.6027 11.62012,1.9296 14.93974,2.9486 3.31961,1.019 8.71961,2.1551 12,2.5246 3.28038,0.3696 8.88933,1.5329 12.46433,2.5851 3.575,1.0522 9.66019,2.3531 13.52265,2.8909 3.86246,0.5378 9.03746,1.6942 11.5,2.5696 2.46254,0.8755 8.25746,2.0591 12.87765,2.6302 4.6201,0.5712 10.9201,1.8677 14,2.8812 6.5154,2.144 20.0493,2.619 21.8997,0.7686 z" id="path1" />
  </g>
</svg>
